Coordinates
version=1
nRows=18
nColumns=34
inDegrees=yes
inDegrees=no

Units are S.I. units (second, meters, Newtons, ...)
If the header above contains a line with 'inDegrees', this indicates whether rotational values are in degrees (yes) or radians (no).

endheader
time	pelvis_tilt	pelvis_list	pelvis_rotation	pelvis_tx	pelvis_ty	pelvis_tz	hip_flexion_r	hip_adduction_r	hip_rotation_r	knee_angle_r	ankle_angle_r	subtalar_angle_r	mtp_angle_r	hip_flexion_l	hip_adduction_l	hip_rotation_l	knee_angle_l	ankle_angle_l	subtalar_angle_l	mtp_angle_l	lumbar_extension	lumbar_bending	lumbar_rotation	arm_flex_r	arm_add_r	arm_rot_r	elbow_flex_r	pro_sup_r	arm_flex_l	arm_add_l	arm_rot_l	elbow_flex_l	pro_sup_l
0.000000 0.651790 0.067551 -0.097064 -0.002179 0.008658 -0.004983 0.850260 -0.023395 -0.273044 0.501818 -0.319377 -0.105854 0.000000 0.867577 -0.259730 -0.554195 1.039200 0.266932 0.179923 0.000000 -0.991254 0.184983 -0.462309 0.169710 -0.284185 0.266935 0.436691 1.202704 1.171179 -0.096267 0.660547 0.729922 1.304430
0.016667 0.588633 0.065773 -0.145183 -0.002392 0.008605 -0.004844 0.902504 0.046830 -0.143881 0.545970 -0.225556 0.030282 0.000000 0.871672 -0.291089 -0.648586 0.996987 0.129037 0.064196 0.000000 -0.974981 0.178419 -0.394852 0.114885 -0.341464 0.280141 0.435344 1.226658 1.136130 -0.079150 0.638064 0.767435 1.330045
0.033333 0.532453 0.057656 -0.133332 -0.002403 0.008494 -0.004893 0.974896 0.061796 -0.135182 0.617606 -0.191013 0.045734 0.000000 0.930186 -0.289699 -0.603274 1.028776 0.124638 -0.001408 0.000000 -0.929504 0.195399 -0.353837 0.075396 -0.386043 0.274243 0.450609 1.245056 1.044121 -0.054970 0.629485 0.824805 1.359498
0.050000 0.528797 0.065391 -0.124005 -0.002544 0.008490 -0.004870 0.977566 0.068804 -0.121539 0.600793 -0.197716 0.059744 0.000000 0.937511 -0.277297 -0.602665 1.027276 0.113366 -0.013569 0.000000 -0.922004 0.192618 -0.373042 0.055137 -0.419500 0.230290 0.446500 1.291799 0.933619 -0.074232 0.541584 0.913332 1.439397
0.066667 0.523150 0.069298 -0.109455 -0.002475 0.008449 -0.004973 0.992618 0.063500 -0.103265 0.623437 -0.181793 0.042960 0.000000 0.967249 -0.257470 -0.593106 1.030992 0.120906 -0.037775 0.000000 -0.906814 0.200716 -0.381739 0.028803 -0.464723 0.206515 0.448282 1.315710 0.852579 -0.086723 0.536260 0.949393 1.478643
0.083333 0.521543 0.074722 -0.096249 -0.002620 0.008422 -0.004973 0.998149 0.055539 -0.085349 0.630144 -0.163360 0.039871 0.000000 0.983871 -0.242867 -0.592306 1.032444 0.116617 -0.041443 0.000000 -0.905980 0.197295 -0.385963 0.018736 -0.499352 0.187408 0.434308 1.331513 0.786663 -0.093439 0.508421 1.000845 1.504192
0.100000 0.538977 0.079376 -0.076974 -0.002650 0.008448 -0.004983 0.976381 0.044771 -0.066756 0.620284 -0.157640 0.037680 0.000000 0.961668 -0.216674 -0.597212 1.004924 0.092417 -0.043304 0.000000 -0.920258 0.199219 -0.393842 0.015653 -0.533149 0.174613 0.411205 1.337306 0.735922 -0.104779 0.486902 1.045226 1.515658
0.116667 0.533421 0.076193 -0.061647 -0.002586 0.008452 -0.004982 0.983700 0.043883 -0.064159 0.635239 -0.150417 0.013384 0.000000 0.959047 -0.208601 -0.594263 0.992484 0.068191 -0.069013 0.000000 -0.917352 0.200272 -0.393614 0.038122 -0.573615 0.140608 0.443969 1.336030 0.675273 -0.109987 0.441173 1.096949 1.519044
0.133333 0.533973 0.078058 -0.038655 -0.002660 0.008436 -0.004949 0.979449 0.035351 -0.057226 0.618179 -0.158799 0.007590 0.000000 0.955520 -0.193689 -0.597268 0.983121 0.092217 -0.038518 0.000000 -0.923050 0.186917 -0.388135 0.090843 -0.609222 0.079729 0.474178 1.333282 0.629249 -0.110869 0.407066 1.143781 1.518368
0.150000 0.531286 0.077370 -0.020146 -0.002626 0.008570 -0.004985 0.965747 0.025299 -0.052361 0.605011 -0.161935 -0.007350 0.000000 0.949717 -0.182393 -0.601246 0.973972 0.036060 -0.066143 0.000000 -0.927637 0.185805 -0.385659 0.118093 -0.635604 0.004095 0.518480 1.334138 0.573246 -0.121570 0.363301 1.206161 1.508630
0.166667 0.538199 0.071392 -0.005552 -0.002644 0.008593 -0.004973 0.949471 0.022700 -0.053352 0.604566 -0.155653 -0.015321 0.000000 0.939839 -0.182068 -0.597180 0.968284 0.016227 -0.068157 0.000000 -0.945287 0.192375 -0.349997 0.125965 -0.653938 0.021595 0.522241 1.357357 0.541963 -0.122657 0.344364 1.254614 1.497393
0.183333 0.540404 0.075508 0.010075 -0.002721 0.008559 -0.004997 0.940786 0.013371 -0.054746 0.585182 -0.160667 -0.014265 0.000000 0.933467 -0.167339 -0.603173 0.956202 0.015990 -0.059721 0.000000 -0.949915 0.185941 -0.341658 0.149597 -0.687690 0.094525 0.531462 1.391156 0.505633 -0.133396 0.301875 1.318071 1.480693
0.200000 0.531285 0.065390 0.012264 -0.002614 0.008587 -0.005090 0.952922 0.015618 -0.052556 0.602177 -0.161189 -0.007394 0.000000 0.942794 -0.174961 -0.600770 0.955293 -0.021147 -0.081377 0.000000 -0.949730 0.189215 -0.313049 0.166381 -0.725197 0.122250 0.576645 1.400380 0.469729 -0.128107 0.260760 1.373939 1.472775
0.216667 0.517581 0.060531 0.012208 -0.002376 0.008643 -0.005121 0.971278 0.020790 -0.050061 0.619940 -0.127983 0.003285 0.000000 0.956868 -0.184847 -0.599968 0.981391 -0.002699 -0.055982 0.000000 -0.934445 0.187600 -0.290516 0.195270 -0.759990 0.158739 0.628371 1.409350 0.420566 -0.118065 0.220474 1.437325 1.464326
0.233333 0.508017 0.065080 0.008385 -0.002308 0.008677 -0.005077 0.974282 0.018624 -0.033805 0.619507 -0.124260 -0.022164 0.000000 0.961504 -0.193331 -0.606866 0.996170 0.018094 -0.028793 0.000000 -0.916278 0.175893 -0.276063 0.227003 -0.791086 0.210677 0.688679 1.420517 0.353122 -0.106622 0.171890 1.516752 1.453436
0.250000 0.504186 0.065887 0.010362 -0.002511 0.008616 -0.005023 0.976699 0.020056 -0.021656 0.615914 -0.122778 -0.046747 0.000000 0.972163 -0.193800 -0.604466 1.005367 0.022396 -0.007933 0.000000 -0.915678 0.165394 -0.255797 0.289396 -0.814185 0.264183 0.754790 1.431264 0.342363 -0.113862 0.143594 1.595389 1.443731
0.266667 0.497830 0.069641 0.012186 -0.002609 0.008596 -0.005111 0.981716 0.013386 -0.021371 0.604186 -0.125160 -0.056654 0.000000 0.975325 -0.180840 -0.604933 0.980490 0.007120 -0.017422 0.000000 -0.918008 0.161604 -0.229359 0.377059 -0.840806 0.312698 0.820265 1.441536 0.358255 -0.119730 0.124383 1.681274 1.432654
0.283333 0.496116 0.069883 0.017310 -0.002638 0.008601 -0.005130 0.990715 0.011478 -0.026366 0.603949 -0.132299 -0.043919 0.000000 0.973646 -0.169182 -0.604031 0.964424 0.019158 -0.002638 0.000000 -0.929687 0.163670 -0.200661 0.485684 -0.852374 0.352916 0.889617 1.451246 0.398677 -0.128134 0.099351 1.769577 1.419262
